<?xml version="1.0" encoding="utf-8"?>
<!-- Generator: Adobe Illustrator 16.0.0, SVG Export Plug-In . SVG Version: 6.00 Build 0)  -->
<!DOCTYPE svg PUBLIC "-//W3C//DTD SVG 1.1//EN" "http://www.w3.org/Graphics/SVG/1.1/DTD/svg11.dtd">
<svg version="1.1" id="Capa_1" xmlns="http://www.w3.org/2000/svg" xmlns:xlink="http://www.w3.org/1999/xlink" x="0px" y="0px"
	 width="431.226px" height="927.116px" viewBox="0 0 431.226 927.116" enable-background="new 0 0 431.226 927.116"
	 xml:space="preserve">
<path fill="#C1271F" d="M302.267,2.169c10-4.863,26.082-1.518,19.416,9.715c-4.864,17.288-7.886,36.704-2.724,53.993
	c2.724,14.863,25.473,20.025,7.574,44.292c-42.152,40.945-79.466,85.548-113.148,132.252
	c20.025,4.553,104.653-53.694,149.853-69.466c9.403-7.574,18.196-7.886,26.082-0.908l37.924,65.822
	c7.886,12.438,3.333,25.174-7.275,37.612C195.785,571.854,139.068,773.261,208.534,903.425c10.312,20.013-6.07,29.714-14.254,19.715
	C122.389,833.947,69.304,748.709,87.812,693.199c42.463-132.253,98.285-239.344,156.831-335.813L98.408,456.579
	c-19.117,12.425-33.371,9.403-43.384-6.978L8.009,390.446c-9.714-10.921-12.14-23.969,1.517-41.866
	C96.903,233.317,191.842,117.445,302.267,2.169L302.267,2.169z"/>
</svg>
