<?xml version="1.0" encoding="utf-8"?>
<!-- Generator: Adobe Illustrator 16.0.0, SVG Export Plug-In . SVG Version: 6.00 Build 0)  -->
<!DOCTYPE svg PUBLIC "-//W3C//DTD SVG 1.1//EN" "http://www.w3.org/Graphics/SVG/1.1/DTD/svg11.dtd">
<svg version="1.1" id="Capa_1" xmlns="http://www.w3.org/2000/svg" xmlns:xlink="http://www.w3.org/1999/xlink" x="0px" y="0px"
	 width="1941.91px" height="332.771px" viewBox="521.337 1036 1941.91 332.771"
	 enable-background="new 521.337 1036 1941.91 332.771" xml:space="preserve">
<path fill="#D30F0F" d="M2252.839,1368.473v-35.484c0.908,0.609,2.438,0.907,3.93,1.193h56.134
	c21.231-2.413,32.45-12.114,33.669-29.104l59.454-204.767c5.473-18.197,2.438-28.819-14.241-29.727c0,0-69.479-1.22-68.883-0.61
	l-70.063,236.919v-174.43l25.485-92.825l158.05-0.609c20.311,2.438,29.104,12.14,26.394,28.818l-70.983,263.611
	c-5.162,23.047-19.429,35.485-42.476,37.016L2252.839,1368.473L2252.839,1368.473z"/>
<polygon fill="#D30F0F" points="2252.839,1052.076 2256.769,1038.419 2252.839,1038.419 "/>
<polygon fill="#D30F0F" points="2252.839,1038.419 2252.839,1052.076 2246.146,1073.308 2222.179,1073.308 2222.179,1038.419 
	2252.839,1038.419 "/>
<path fill="#D30F0F" d="M2252.839,1132.462v174.431l-2.736,9.092c-2.438,6.99-2.438,14.267,2.736,17.003v35.485h-30.647v-125.287
	L2252.839,1132.462L2252.839,1132.462z"/>
<path fill="#D30F0F" d="M2222.191,1038.419v34.889l-60.361-0.61c-11.219,1.22-19.104,6.979-23.047,17.289l-20.013,74.316
	c-3.956,10.921-2.127,19.118,6.057,24.578h69.479l-9.403,28.521h-67.353c-8.481,1.206-13.955,6.978-17.275,16.99l-20.336,80.387
	c-3.035,15.784,2.736,17.003,9.092,21.841h87.364l-9.403,33.695h-115.587c-2.101-0.609-3.93-0.907-5.745-1.518v-110.735
	l48.844-191.408c8.482-21.841,24.267-28.521,43.67-27.6L2222.191,1038.419L2222.191,1038.419z"/>
<polygon fill="#D30F0F" points="2222.191,1243.186 2187.316,1368.473 2222.191,1368.473 "/>
<path fill="#D30F0F" d="M2045.66,1095.148l12.736-16.381c15.447-21.231,9.403-38.222-12.736-38.832V1095.148z"/>
<path fill="#D30F0F" d="M2045.66,1039.936v55.213l-168.957,215.077c-8.482,8.185-7.898,22.14,3.93,22.438h114.977l-9.701,37.612
	h-152.291v-72.8l161.084-211.744c7.873-10.311,0.908-16.381-10.92-16.381h-94.329l1.518-29.429h153.782L2045.66,1039.936
	L2045.66,1039.936z"/>
<path fill="#D30F0F" d="M2045.66,1258.049l-19.131,75.237c-5.136,16.978-1.828,30.323,19.131,35.485V1258.049z"/>
<polygon fill="#D30F0F" points="1833.604,1162.5 1866.988,1039.949 1833.604,1039.949 "/>
<polygon fill="#D30F0F" points="1833.604,1039.937 1833.604,1162.5 1776.59,1370.574 1723.192,1370.574 1813.903,1039.937 "/>
<path fill="#D30F0F" d="M1833.604,1297.49l-27.288,36.095c-11.245,16.666-6.991,29.104,12.736,36.704h14.539v-72.799H1833.604z"/>
<path fill="#D30F0F" d="M1312.453,1371.508v-4.564l174.133-326.41l54.888-0.908l20.038,329.743l-46.432-0.609l-8.794-123.174
	c0.61-8.184-3.346-12.736-11.219-13.645l-45.498-1.815l6.667-27.911h38.831c3.347-0.908,15.474,0.299,10.312-16.99l-6.355-73.11
	l-11.828-1.22l-137.117,260.589h-37.625V1371.508z"/>
<polygon fill="#D30F0F" points="1312.453,1333.585 1392.555,1039.937 1339.456,1039.937 1312.453,1138.83 "/>
<polygon fill="#D30F0F" points="1312.453,1046.317 1314.58,1038.432 1312.453,1038.432 "/>
<path fill="#D30F0F" d="M1653.117,1039.937h52.787l-73.409,269.991c-3.645,14.241-0.298,21.841,10,22.14l74.628,1.828
	l-11.219,36.095l-104.978,0.584c-21.53-5.136-28.806-22.723-27.288-39.415L1653.117,1039.937L1653.117,1039.937z"/>
<polygon fill="#D30F0F" points="1312.453,1038.419 1312.453,1046.305 1304.27,1073.308 1281.832,1073.308 1281.832,1038.419 "/>
<polygon fill="#D30F0F" points="1312.453,1138.83 1312.453,1333.585 1302.143,1370.574 1281.832,1370.574 1281.832,1250.461 "/>
<polygon fill="#D30F0F" points="1312.453,1366.956 1310.015,1371.521 1312.453,1371.521 "/>
<path fill="#D30F0F" d="M1281.832,1038.419v34.889l-61.893-0.609c-11.231,1.219-18.806,6.978-23.047,17.288
	c-40.958,153.484-13.657,47.625-58.856,224.779c-3.035,15.784,2.724,17.003,9.403,21.841h87.053l-9.403,33.695h-113.446v-142.9
	l40.958-160.773c8.495-21.841,24.578-28.521,43.683-27.6L1281.832,1038.419L1281.832,1038.419z"/>
<polygon fill="#D30F0F" points="1281.832,1250.461 1249.057,1370.574 1281.832,1370.574 "/>
<polygon fill="#D30F0F" points="1111.643,1073.308 1130.15,1073.308 1140.76,1038.419 1111.643,1038.419 "/>
<path fill="#D30F0F" d="M1111.643,1038.419v34.889l-66.133-0.61c-11.219,1.22-18.807,6.979-23.048,17.289l-19.727,74.317
	c-4.241,10.92-2.127,19.117,6.069,24.577h69.168l-9.092,28.521h-67.352c-8.495,1.206-14.267,6.978-17.289,16.99l-20.323,80.374
	c-3.333,15.784,2.438,17.003,9.104,21.841h87.066l-9.105,33.695H935.409c-2.127-0.609-4.241-0.907-6.07-1.518v-110.126
	l48.845-192.018c8.807-21.841,24.577-28.521,43.682-27.6L1111.643,1038.419L1111.643,1038.419z"/>
<path fill="#D30F0F" d="M1111.643,1227.401l-27.003,105.885c-5.461,18.495-1.206,32.45,25.174,37.016h1.816v-142.9H1111.643z"/>
<path fill="#D30F0F" d="M929.326,1160.97l20.622-83.11c2.724-21.244-3.942-33.683-20.622-37.313V1160.97L929.326,1160.97z"/>
<polygon fill="#D30F0F" points="767.036,1039.638 758.554,1072.697 733.976,1072.697 733.976,1039.937 "/>
<path fill="#D30F0F" d="M929.326,1040.546c-2.992-0.635-6.046-0.939-9.104-0.908l-129.529-0.609l-56.729,209.617v121.644h11.842
	l80.685-296.981l53.396,0.609c11.219,2.127,17.289,8.495,17.898,19.104l-21.842,89.789c-2.724,14.565-12.438,24.267-29.13,29.728
	l-40.945,8.793l-7.289,32.152l88.584-15.771c17.288-4.863,29.117-16.082,32.45-37.016l9.714-39.739V1040.546L929.326,1040.546z"/>
<path fill="#D30F0F" d="M929.326,1258.658v110.126c-20.933-5.473-23.968-18.521-19.104-35.485L929.326,1258.658z"/>
<path fill="#D30F0F" d="M733.976,1072.697h-73.11c-27.911,2.426-41.866,64.006-28.508,79.777l65.226,57.638
	c11.517,10.609,17.897,23.657,13.346,41.556l-21.231,82.824c-3.035,21.231-14.863,32.45-35.485,34.279H521.337l8.793-30.959
	l89.79-0.609c12.736,1.219,24.267,0.299,28.209-15.758l18.508-65.226c-0.298-10.622-1.828-21.231-11.231-31.542l-66.742-60.374
	c-15.162-38.521,16.691-117.701,54.9-124.069l90.399-0.298v32.761H733.976L733.976,1072.697z"/>
<polygon fill="#D30F0F" points="733.976,1248.646 700.916,1370.289 733.976,1370.289 "/>
</svg>
